PathFileType	3	(X/Y/Z)	D:\minhoCalibration\240510\subject4_KPNP\preferred\preferred01.trc
DataRate	CameraRate	NumFrames	NumMarkers	Units	OrigDataRate	OrigDataStartFrame	OrigNumFrames
200.0	200.0	31	10	mm	200.0	108	100	
Frame#	Time	Left_Ankle_Outer1			Left_Ankle_Inner1			Left_Knee_Outer1			Left_Knee_Inner1			Left_Wrist1			Right_Wrist1			Right_Knee_Inner1			Right_Knee_Outer1			Right_Ankle_Inner1			Right_Ankle_Outer1			
		X1	Y1	Z1	X2	Y2	Z2	X3	Y3	Z3	X4	Y4	Z4	X5	Y5	Z5	X6	Y6	Z6	X7	Y7	Z7	X8	Y8	Z8	X9	Y9	Z9	X10	Y10	Z10	
108	0.53	-454.86725	1137.3677	274.97113	-438.27631	1034.7037	277.50552	-257.07043	1092.5243	758.44995	-270.40833	1015.4966	732.83484	-370.01312	1190.1454	1128.7207	-326.39984	881.90741	1338.1045	-239.79935	520.09161	1061.2056	-233.84706	529.45917	1172.6349	-481.7189	101.39589	1140.8359	-467.26038	114.45925	1195.4966
109	0.535	-457.28574	1127.0879	270.98688	-438.97388	1023.1555	276.76221	-263.8183	1099.3309	758.59546	-271.75134	1019.8887	730.90387	-374.93695	1189.63	1126.9865	-325.25009	880.62329	1333.1769	-240.55309	520.14746	1056.0691	-232.20309	529.7182	1167.1881	-481.66772	101.53996	1141.454	-466.13043	114.85513	1195.83
110	0.54	-459.38547	1114.6986	266.4278	-439.18643	1011.7202	276.5242	-272.45663	1106.8494	757.4035	-273.38953	1022.5363	728.74133	-379.49985	1189.5365	1125.5833	-324.35724	879.01672	1327.8544	-242.01297	520.18268	1051.4141	-230.68651	529.94	1162.0997	-481.70572	101.52005	1141.4388	-465.14917	115.26128	1195.5675
111	0.545	-461.53882	1101.5693	262.64697	-438.0849	1000.3724	275.85968	-283.81976	1112.6915	755.23157	-274.87555	1024.1528	727.1369	-384.10928	1189.6738	1124.421	-323.64975	877.52405	1322.1326	-243.20442	519.93866	1046.8361	-229.09691	529.98981	1157.1544	-481.84363	101.27811	1140.8606	-464.32358	115.73746	1194.5081
112	0.55	-463.66257	1088.3457	259.2027	-434.61139	988.84406	273.53632	-296.63428	1115.7544	751.64667	-276.53391	1024.8929	726.25159	-388.04886	1190.6005	1123.6356	-322.88428	875.82178	1316.295	-244.30106	519.8797	1042.457	-227.60931	530.06104	1152.5204	-481.95187	101.39246	1139.317	-463.91708	116.12683	1192.8075
113	0.555	-465.02994	1073.8839	255.69838	-430.50928	976.10229	270.83246	-309.95975	1116.0266	747.2406	-278.22449	1024.8296	725.68634	-391.61475	1191.2231	1122.8748	-321.651	874.01862	1310.6293	-245.84221	519.89038	1038.5446	-226.44969	529.81244	1147.8484	-482.28128	101.29965	1137.1975	-463.7532	116.41897	1190.3634
114	0.56	-466.35873	1059.3896	252.91093	-426.28656	963.16748	268.60062	-321.2052	1113.6414	743.16223	-280.31912	1024.0509	725.6933	-395.15387	1191.4702	1122.4086	-319.92209	871.92041	1305.8151	-246.96878	519.65546	1034.641	-225.09987	529.63007	1143.907	-482.85318	101.05676	1134.4531	-463.97852	116.55785	1187.5217
115	0.565	-465.81415	1043.5265	249.73521	-421.23651	950.58881	265.83228	-330.2998	1109.7775	740.17462	-283.69342	1022.6592	725.38306	-398.24487	1191.2311	1121.9955	-317.75662	869.44952	1301.8047	-248.05779	519.77716	1031.1475	-224.15038	529.15735	1139.9991	-483.57452	101.16292	1131.4484	-464.53735	116.34183	1184.1777
116	0.57	-465.50073	1027.8058	246.86427	-416.02039	937.62622	263.38681	-337.54358	1105.0203	737.8927	-287.31097	1019.8865	724.98798	-401.58047	1190.4235	1121.5725	-315.28659	867.30426	1298.6189	-248.52907	519.90112	1027.6068	-223.17923	528.41809	1136.3621	-484.51221	100.55974	1127.7633	-465.33112	115.82322	1180.2708
117	0.575	-465.30966	1012.103	244.23521	-410.89413	924.67352	260.98071	-343.82791	1099.6407	735.65717	-292.11072	1016.0605	723.94739	-404.92001	1189.1879	1121.1115	-312.49072	865.6814	1295.7891	-249.87822	519.99579	1024.9872	-222.33081	527.51514	1133.2426	-485.43863	99.790657	1123.9924	-466.5116	115.46027	1176.6368
118	0.58	-464.10349	996.6825	241.46735	-405.84366	911.57434	258.64301	-349.3645	1093.6799	733.39044	-297.3541	1011.2332	722.62122	-408.16104	1187.4624	1120.4259	-309.66562	864.72272	1293.4664	-250.56332	519.56067	1022.3541	-221.50778	526.56793	1130.8141	-486.72357	98.953033	1120.4559	-468.25861	114.70818	1173.2393
119	0.585	-462.7626	981.40936	238.94963	-401.50784	898.61481	257.77701	-353.85107	1087.3168	731.16431	-303.00577	1005.5711	721.17072	-411.58807	1185.3013	1119.704	-306.93671	864.03796	1291.5713	-251.2567	519.1499	1020.2737	-221.3656	525.31116	1128.3774	-487.77521	97.671608	1116.5302	-469.4899	113.85316	1169.5914
120	0.59	-461.40289	965.8468	237.09602	-397.07794	885.89014	257.45181	-358.7529	1081.0381	728.52087	-309.12949	999.23785	719.77374	-414.89026	1183.0836	1118.9154	-304.05746	863.83954	1289.6047	-251.18959	518.19458	1018.2574	-221.27119	523.91949	1126.5989	-488.54807	96.483246	1113.3761	-470.66159	112.60455	1166.1799
121	0.595	-460.05087	949.78223	235.83455	-392.6243	872.82037	257.96045	-363.65063	1074.6984	725.87817	-314.99692	992.64081	718.60681	-418.31589	1180.1692	1118.016	-301.35172	863.72052	1287.9773	-251.0806	516.89667	1016.6315	-221.56334	522.41315	1125.1152	-489.73944	94.802383	1110.6582	-472.20621	111.32392	1163.6184
122	0.6	-458.54193	933.09546	234.9095	-388.33136	859.53406	258.97842	-369.12518	1068.0533	722.94482	-321.01651	985.60767	717.59961	-421.67935	1177.3154	1117.0925	-298.67236	863.66827	1286.3552	-251.42166	514.93878	1015.67	-222.12263	520.6908	1123.9879	-490.25684	93.046829	1108.2928	-473.86887	109.8158	1161.8488
123	0.605	-457.14572	916.13611	234.37845	-384.30429	846.22827	260.66251	-375.27969	1061.2611	720.11157	-326.66031	978.45996	716.51886	-424.72958	1173.7556	1116.1616	-296.12305	863.85284	1285.052	-250.7756	512.85052	1014.5287	-222.82646	518.85437	1123.1327	-491.80209	91.315834	1107.616	-474.81039	108.31261	1160.6539
124	0.61	-456.74911	898.66382	235.51785	-380.56061	832.82562	262.6915	-381.91321	1054.3972	717.38391	-331.65933	971.37524	715.47473	-427.51892	1170.4534	1115.3657	-293.72003	863.90424	1283.709	-250.43813	509.99313	1013.7883	-223.76413	516.73157	1122.3995	-492.65625	89.430183	1107.2543	-476.05887	106.81009	1160.7998
125	0.615	-456.76242	881.09863	236.65396	-378.85434	817.96332	264.38116	-388.78033	1047.0861	715.04919	-336.05475	964.34241	714.42389	-429.73602	1166.267	1114.381	-291.51044	863.76898	1282.4329	-249.94458	507.24924	1013.2146	-224.59004	514.69263	1122.1002	-493.44867	87.63237	1107.922	-476.73843	104.85977	1161.3948
126	0.62	-456.47446	862.99835	238.34067	-376.20462	803.4873	266.36337	-395.86938	1039.8027	713.22882	-339.59302	957.46527	713.28278	-432.13629	1162.3088	1113.3031	-289.48944	863.52551	1281.2576	-249.49449	504.06116	1012.6039	-225.73001	512.27667	1121.4604	-494.85037	85.953323	1110.0168	-477.1991	103.21693	1163.0508
127	0.625	-456.83691	845.00421	240.51923	-374.52231	788.98956	268.40015	-402.13272	1031.5057	711.70013	-343.74078	950.83569	711.48187	-434.78223	1158.3502	1112.1976	-287.79678	863.02368	1280.2048	-249.81123	500.84518	1012.4393	-226.61865	509.90927	1121.2386	-495.20132	83.933525	1112.0391	-477.40747	101.40305	1165.29
128	0.63	-457.91974	827.34985	242.98094	-372.66522	775.93732	270.28473	-407.87573	1022.7404	710.59454	-346.09256	944.6283	710.38068	-437.27438	1154.4298	1110.8712	-286.36923	862.17535	1279.3501	-249.82468	497.99731	1012.0397	-227.27213	507.62994	1121.225	-496.22534	82.334297	1115.0488	-477.57114	99.90004	1168.3345
129	0.635	-460.68616	810.54761	246.22116	-372.73547	763.45691	272.32074	-412.59207	1013.645	709.73798	-347.9519	938.50464	709.69006	-439.77615	1150.9907	1109.4783	-285.32358	861.1283	1278.6558	-250.39836	495.15857	1011.7559	-227.72791	504.98462	1120.7719	-497.07101	80.645615	1118.7201	-477.46039	98.260345	1171.5669
130	0.64	-463.06726	793.39148	249.22272	-372.80957	750.44702	274.58942	-416.57108	1004.6481	709.08807	-349.38538	932.00812	709.24036	-442.52567	1148.0536	1108.0314	-284.61346	859.80243	1278.15	-251.10161	492.38257	1011.3813	-228.24783	502.36148	1120.2024	-497.54568	79.187111	1122.24	-477.33716	96.738434	1175.1849
131	0.645	-465.45721	776.2439	252.82156	-373.67947	736.39844	277.85938	-419.84723	996.03925	708.66913	-351.13669	925.10199	709.4093	-445.29993	1145.3485	1106.5679	-284.17255	858.2796	1277.7604	-252.23691	490.13724	1011.1952	-227.98032	500.23062	1120.1846	-497.95084	77.681847	1126.2888	-477.02658	95.181747	1178.7141
132	0.65	-469.23627	760.10541	256.2822	-376.44672	722.26709	281.16641	-422.46521	987.27844	708.33643	-352.97009	917.35791	710.09204	-447.92365	1142.6322	1105.1906	-284.01294	856.6842	1277.453	-253.38101	487.92215	1010.9397	-227.57727	498.05539	1119.7977	-498.58331	76.18634	1129.823	-476.6824	93.716759	1182.0417
133	0.655	-472.90906	744.15063	259.86035	-379.6514	707.42621	285.05771	-424.6629	978.92731	708.18292	-355.08588	909.0426	710.96509	-450.38477	1139.7426	1103.8311	-284.13388	854.95984	1277.1316	-254.51788	485.81546	1010.7667	-226.93108	496.11371	1119.4335	-498.65625	74.367737	1132.5823	-476.25101	91.9048	1184.9116
134	0.66	-476.78372	728.18884	263.70239	-383.30899	692.07886	289.42975	-426.54834	970.48621	708.065	-357.51425	900.52563	712.11969	-452.97879	1136.859	1102.4432	-284.5181	853.21191	1276.8519	-255.81325	484.13895	1010.8329	-226.02751	494.23816	1118.9938	-499.19107	72.993988	1135.5778	-476.32855	90.556435	1187.7451
135	0.665	-480.82397	712.0127	268.03836	-386.97531	676.88617	294.19922	-429.2558	962.14813	708.36713	-360.14587	891.94598	713.51807	-455.03183	1133.5275	1101.0753	-285.25336	851.31262	1276.6125	-256.51813	482.17905	1010.6728	-225.07227	492.46783	1118.6399	-499.66541	71.369659	1137.6418	-476.24945	88.837891	1189.7142
136	0.67	-485.37561	695.30231	272.90295	-391.414	660.69116	299.6376	-431.5531	953.88666	708.68665	-362.93213	883.01068	714.86542	-457.0271	1130.1384	1099.7347	-286.26782	849.20581	1276.3416	-257.21552	480.59088	1010.8105	-223.75679	490.86316	1118.6453	-500.04047	69.887543	1138.9027	-476.74823	87.530266	1191.3907
137	0.675	-490.01569	678.31787	278.49374	-395.76215	644.53467	305.46683	-434.24216	945.46655	709.1814	-365.62689	874.07983	716.38196	-458.69675	1126.4355	1098.3579	-287.44357	846.92438	1276.1198	-257.91519	478.78851	1011.1017	-222.7439	489.08002	1118.2318	-500.82196	68.055435	1139.3413	-477.40961	85.689651	1191.9703
138	0.68	-494.49045	660.43787	284.40875	-399.70309	628.07556	311.87799	-436.88016	937.13202	709.91888	-368.19226	865.67841	718.10907	-460.01349	1122.734	1097.0952	-288.86383	844.41052	1275.707	-257.85892	477.08838	1011.1068	-221.60942	487.45886	1118.3629	-501.42975	66.583336	1138.9319	-478.20361	84.048592	1191.7842
